<?xml version="1.0" encoding="utf-8"?>
<!-- Generator: Adobe Illustrator 27.5.0, SVG Export Plug-In . SVG Version: 6.00 Build 0)  -->
<svg version="1.1" xmlns="http://www.w3.org/2000/svg" xmlns:xlink="http://www.w3.org/1999/xlink" x="0px" y="0px"
	 viewBox="0 0 500 500" style="enable-background:new 0 0 500 500;" xml:space="preserve">
<g id="Background">
	<path style="fill:#B7DAED;" d="M381.315,260.655c0,73.174-59.317,132.493-132.49,132.493c-73.173,0-132.49-59.319-132.49-132.493
		c0-73.171,59.317-132.489,132.49-132.489C321.998,128.167,381.315,187.484,381.315,260.655z"/>
</g>
<g id="Objects">
	<path style="fill:#DCDCDC;" d="M338.957,423.9c0,6.958-38.667,12.6-86.363,12.6c-47.697,0-86.363-5.642-86.363-12.6
		c0-6.959,38.665-12.601,86.363-12.601C300.29,411.3,338.957,416.941,338.957,423.9z"/>
	<g>
		<g>
			<polygon style="fill:#6B6966;" points="215.215,360.569 261.297,334.086 260.205,290.558 212.236,306.663 			"/>
		</g>
		<g>
			<path style="fill:#6B6966;" d="M217.475,356.27c0,2.883-2.357,5.239-5.239,5.239h-37.165c-2.881,0-5.239-2.356-5.239-5.239
				v-44.367c0-2.883,2.357-5.239,5.239-5.239h37.165c2.882,0,5.239,2.356,5.239,5.239V356.27z"/>
		</g>
		<g>
			<polygon style="fill:#5C5A58;" points="169.832,316.268 217.475,316.268 263.479,295.093 216.938,294.766 169.997,310.81 			"/>
		</g>
		<g>
			<path style="fill:#FFB189;" d="M200.465,255.719l0.992,16.983c0,0-2.223,2.522-2.714,5.632
				c-0.491,3.111,1.884,11.175,4.176,11.338c2.292,0.163,13.199-1.005,14.018-1.496c0.819-0.491-0.545-5.495-0.545-5.495
				s-1.158-7.702-2.96-9.503c-1.801-1.801,0.001-17.459,0.001-17.459H200.465z"/>
		</g>
		<g>
			<path style="fill:#FF9900;" d="M211.305,305.56h-38.939c-0.514,0-1.01,0.075-1.478,0.218c-2.088,0.635-3.61,2.574-3.61,4.87
				h49.116C216.393,307.838,214.115,305.56,211.305,305.56z"/>
		</g>
		<g>
			<polygon style="fill:#FF9900;" points="222.877,288.981 170.888,305.777 217.475,312.612 262.988,291.818 			"/>
		</g>
		<g>
			<path style="fill:#FF9900;" d="M218.403,311.247c0,0.753-0.611,1.365-1.365,1.365h-49.443c-0.754,0-1.364-0.612-1.364-1.365l0,0
				c0-0.754,0.61-1.364,1.364-1.364h49.443C217.792,309.883,218.403,310.493,218.403,311.247L218.403,311.247z"/>
		</g>
		<g>
			<path style="fill:#6B6966;" d="M200.2,303.762h-5.239v-12.776c0-4.049,3.053-8.083,6.949-9.185l26.887-7.6v19.07h-5.239v-12.146
				l-20.223,5.717c-1.67,0.472-3.134,2.407-3.134,4.143V303.762z"/>
		</g>
		<g>
			<path style="fill:#D21F20;" d="M207.549,162.372c-5.494,7.772-15.669,49.224-13.705,61.34c1.965,12.115,5.291,35.69,5.291,35.69
				l16.001-0.031c0,0-3-41.459,1.257-46.699c4.257-5.239,6.109-8.313,6.109-8.313l15.935,52.751l34.053,4.911
				c0,0,7.75-54.244,27.832-72.145c0,0,1.965-33.945-13.752-35.254C270.852,153.313,216.498,149.711,207.549,162.372z"/>
		</g>
		<g>
			<path style="fill:#FFBD00;" d="M281.985,421.266c0,0-4.364-127.045-5.238-158.043c-0.874-30.998,17.026-64.069,17.026-64.069
				s-3.929-5.566-21.61-16.044l-54.55,0.727l-1.22,28.836c0,0,6.654,29.157,5.345,72.815c-1.31,43.659-4.802,133.594-4.802,133.594
				l11.351-1.31c0,0,12.643-142.324,21.374-134.467c8.731,7.859,22.721,137.961,22.721,137.961h11.351H281.985z"/>
		</g>
		<g>
			<path style="fill:#FFBD00;" d="M234.447,153.134c1.106-2.54-12.545-1.536-14.517,1.052c-3.99,5.24-1.841,41.804-1.841,41.804
				l12.598-7.423C230.688,188.567,228.334,167.174,234.447,153.134z"/>
		</g>
		<g>
			<path style="fill:#FFB189;" d="M262.68,153.745c0,0-14,8.684-25.225,0.498l1.061-11.958l0.144-1.715l0.537-6.078h21.741
				l0.93,10.243L262.68,153.745z"/>
		</g>
		<g>
			<path style="fill:#B51B1C;" d="M245.47,157.753l-7.738-7.545l-2.746,3.566C234.986,153.774,235.429,156.771,245.47,157.753z"/>
		</g>
		<g>
			<path style="fill:#B51B1C;" d="M262.36,150.208l-16.89,7.545c0,0,10.693,2.199,19.754-4.395L262.36,150.208z"/>
		</g>
		<g>
			<path style="fill:#E09C79;" d="M261.867,144.734l-5.919,0.393c-10.74,0.393-15.547-1.637-17.433-2.842
				c-0.772-0.498-1.061-0.864-1.061-0.864s0.446-0.314,1.205-0.851c1.768-1.271,5.304-3.72,9.05-6.078h13.227L261.867,144.734z"/>
		</g>
		<g>
			<path style="fill:#FFB189;" d="M230.168,97.453c0,0,1.806,18.864,1.806,24.282c0,5.419-4.013,13.044,0,17.258
				c4.013,4.214,32.225,6.279,36.122-2.157c2.825-6.116,4.215-23.329,0-42.594C263.881,74.976,230.168,97.453,230.168,97.453z"/>
		</g>
		<g>
			<path style="fill:#FFB189;" d="M276.398,117.46c-0.912,3.826-4.039,6.359-6.985,5.658c-2.946-0.702-4.597-4.372-3.685-8.198
				c0.91-3.827,4.037-6.359,6.984-5.658C275.658,109.963,277.31,113.633,276.398,117.46z"/>
		</g>
		<g>
			<path style="fill:#5D4837;" d="M256.932,94.865c0,0,6.001,4.803,7.803,9.496c1.255,3.269,1.442,12.862,1.442,12.862h1.805
				c0,0,0.144-7.779,2.779-7.973c0,0,1.314-8.164,0.986-12.175C271.419,93.064,256.932,94.865,256.932,94.865z"/>
		</g>
		<g>
			<path style="fill:#BF1C1D;" d="M271.747,101.706c0,0,3.958-17.324-4.665-20.489c-8.621-3.165-32.799-6.543-34.873,0.551
				c-2.074,7.094-2.674,19.938-2.674,19.938S242.501,78.91,271.747,101.706z"/>
		</g>
		<g>
			<path style="fill:#D21F20;" d="M269.328,100.745c0,0,0,0,0-0.01c-8.403-3.196-35.895-12.434-38.635,2.497
				c0,0-0.053-0.021-0.159-0.064c-0.053-0.021-0.106-0.042-0.18-0.074c-0.021,0-0.032-0.011-0.042-0.021
				c-0.053-0.021-0.106-0.042-0.169-0.063c-0.032-0.011-0.063-0.032-0.106-0.043c-0.085-0.042-0.19-0.085-0.296-0.127
				c-0.032-0.01-0.074-0.021-0.106-0.042c-3.958-1.683-17.895-7.894-20.561-13.153v-0.011c-0.571-1.122-0.624-2.211,0.053-3.196
				c4.36-6.359,29.259-13.375,36.508-11.216c11.725,3.492,25.725,25.851,26.105,26.476
				C271.634,101.656,270.756,101.285,269.328,100.745z"/>
		</g>
		<g>
			<path style="fill:#5D4837;" d="M250.067,107.87c0,0,3.754-1.146,9.211,1.092c0,0,1.672-0.828,1.854-1.326
				c0.327-0.89-4.154-5.205-10.258-4.186C247.353,104.036,249.268,108.034,250.067,107.87z"/>
		</g>
		<g>
			<path style="fill:#5D4837;" d="M239.539,108.331c0,0-3.652-0.897-8.262,1.34c0,0-1.413-0.829-1.567-1.326
				c-0.277-0.889,3.469-5.069,8.668-4.186C241.5,104.688,239.928,108.149,239.539,108.331z"/>
		</g>
		<g>
			<path style="fill:#FF9D6B;" d="M244.483,110.243c0,0-0.108,7.039-0.709,8.95c0,0-3.493,1.31-2.401,4.53
				c1.092,3.22,5.554,1.256,5.676,1.146c0.982-0.887,1.289-8.965-0.328-14.625C245.848,107.187,244.483,110.243,244.483,110.243z"/>
		</g>
		<g>
			<path style="fill:#5D4837;" d="M255.766,127.694v0.013c-0.039,0.786-0.184,1.559-0.446,2.279
				c-0.013,0.04-0.026,0.079-0.038,0.118c-0.027,0.092-0.066,0.184-0.105,0.262c-0.707,1.754-2.069,3.183-4.1,3.549
				c-3.209,0.564-5.711-0.576-7.4-1.833c-1.637-1.218-2.514-2.541-2.514-2.541s0.655,0.013,1.702-0.052
				c0.209-0.014,0.432-0.026,0.668-0.053c2.999-0.249,8.199-1.113,11.932-4.034C255.464,125.402,255.871,125.546,255.766,127.694z"
				/>
		</g>
		<g>
			<path style="fill:#AD795E;" d="M257.745,113.672c0,1.16-0.764,2.1-1.706,2.1c-0.941,0-1.705-0.94-1.705-2.1
				c0-1.159,0.764-2.1,1.705-2.1C256.981,111.572,257.745,112.513,257.745,113.672z"/>
		</g>
		<g>
			<path style="fill:#AD795E;" d="M240.188,113.672c0,1.16-0.764,2.1-1.706,2.1c-0.941,0-1.705-0.94-1.705-2.1
				c0-1.159,0.764-2.1,1.705-2.1C239.425,111.572,240.188,112.513,240.188,113.672z"/>
		</g>
		<g>
			<path style="fill:#FF9D6B;" d="M270.761,118.653c0,0,1.498-0.818,0.761-2.435c-0.735-1.617-0.879-2.313-0.879-2.313
				s1.452-3.438,3.008-1.658c1.556,1.781,0.676,5.976-0.614,6.856C271.747,119.983,270.594,120.249,270.761,118.653z"/>
		</g>
		<g>
			<path style="fill:#FF9D00;" d="M230.168,190.968h30.037C260.205,190.968,242.682,196.535,230.168,190.968z"/>
		</g>
		<g>
			<path style="fill:#FFB189;" d="M205.029,289.688c0,0,3.332-1.471,1.695-8.347c-0.683-2.867,9.036-3.541,10.476-2.624
				c2.696,1.717,1.44,8.786-0.807,9.854C214.146,289.637,205.029,289.688,205.029,289.688z"/>
		</g>
		<g>
			<path style="fill:#FFBD00;" d="M267.645,152.333c3.061-3.008,17.999,0.29,14.53,2.069c-7.052,3.617-6.236,38.227-6.236,38.227
				l-13.098,1.747C262.841,194.376,261.352,158.517,267.645,152.333z"/>
		</g>
		<g>
			<path style="fill:#1D1D1D;" d="M217.082,415.272c0,0-24.821,5.668-23.429,8.178c1.392,2.51,6.303,5.237,13.617,3.371
				c3.154-0.804,12.378-3.842,13.797-3.731l0.501,0.523l6.876-0.655c0,0,1.13-8.036,0.41-8.022
				C228.133,414.949,217.082,415.272,217.082,415.272z"/>
		</g>
		<g>
			<path style="fill:#1D1D1D;" d="M283.189,415.272c0,0,24.821,5.668,23.43,8.178c-1.392,2.51-6.303,5.237-13.616,3.371
				c-3.155-0.804-12.379-3.842-13.796-3.731l-0.501,0.523l-6.877-0.655c0,0-1.129-8.036-0.41-8.022
				C272.14,414.949,283.189,415.272,283.189,415.272z"/>
		</g>
		<g>
			<path style="fill:#6B6966;" d="M186.164,361.449c0,0.927-0.751,1.677-1.678,1.677l0,0c-0.927,0-1.678-0.75-1.678-1.677l0,0
				c0-0.928,0.751-1.679,1.678-1.679l0,0C185.412,359.771,186.164,360.522,186.164,361.449L186.164,361.449z"/>
		</g>
		<g>
			<path style="fill:#6B6966;" d="M195.331,361.449c0,0.927-0.751,1.677-1.678,1.677l0,0c-0.926,0-1.678-0.75-1.678-1.677l0,0
				c0-0.928,0.751-1.679,1.678-1.679l0,0C194.581,359.771,195.331,360.522,195.331,361.449L195.331,361.449z"/>
		</g>
		<g>
			<path style="fill:#6B6966;" d="M204.5,361.449c0,0.927-0.752,1.677-1.678,1.677l0,0c-0.927,0-1.678-0.75-1.678-1.677l0,0
				c0-0.928,0.751-1.679,1.678-1.679l0,0C203.748,359.771,204.5,360.522,204.5,361.449L204.5,361.449z"/>
		</g>
		<g>
			<rect x="176.409" y="322.927" style="fill:#5C5A58;" width="34.489" height="28.922"/>
		</g>
		<g>
			<path style="fill:#FFFFFF;" d="M255.766,127.694v0.013c-0.039,0.786-0.184,1.559-0.446,2.279
				c-0.013,0.04-0.026,0.079-0.038,0.118c-1.56,0.367-3.302,0.563-5.148,0.563c-2.737,0-5.252-0.433-7.27-1.179
				c0.209-0.014,0.432-0.026,0.668-0.053c2.999-0.249,8.199-1.113,11.932-4.034C255.464,125.402,255.871,125.546,255.766,127.694z"
				/>
		</g>
		<g>
			<path style="fill:#FF9D00;" d="M230.168,193.442c0,0-0.851,22.629,2.969,24.703c3.82,2.074,24.121,3.165,25.65,0.546
				c1.528-2.62,1.418-26.487,1.418-26.487s-1.187,25.614-4.359,26.16C252.674,218.91,232.438,219.056,230.168,193.442z"/>
		</g>
		<g>
			<path style="fill:#B51B1C;" d="M199.136,260.657c0,0,17.54-0.162,17.257-1.364c-0.283-1.2,1.047-12.661,0-12.661
				c-1.047,0-21.021-1.201-21.021,0.764C195.373,249.361,197.659,260.678,199.136,260.657z"/>
		</g>
		<path style="fill:#FFB189;" d="M204.213,278.906c0,0,4.497,7.945,1.875,9.833c-1.311,0.944,6.81,2.231,6.148-2.795
			c-0.339-2.577-1.118-6.551-2.114-9.436c-0.948-2.742-3.294-4.806-4.034-5.218C204.566,270.445,202.694,275.608,204.213,278.906z"
			/>
		<path style="fill:#FF9D00;" d="M250.068,283.755c0,0-7.407-6.152-7.583-5.421c-0.176,0.732-15.962,136.601-15.962,136.601h2.33
			c0,0,16.591-123.244,20.623-130.924L250.068,283.755z"/>
		<path style="fill:#FF9D00;" d="M281.769,414.935c0,0-10.44-140.279-9.077-146.274c1.363-5.996,3.111-83.344,3.111-83.344
			s10.641,18.132,12.165,26.391c0.85,4.601-8.546,24.844-9.113,40.722c-0.567,15.878,4.335,162.842,4.335,162.842L281.769,414.935z"
			/>
		<g>
			
				<rect x="274.091" y="278.803" transform="matrix(0.9853 -0.1709 0.1709 0.9853 -43.681 55.4869)" style="fill:#6B6966;" width="52.621" height="5.239"/>
		</g>
		<g>
			<path style="fill:#FFB189;" d="M297.86,254.572l-0.11,14.772c0,0-4.584,7.368-5.075,10.478c-0.49,3.11,3.602,10.643,5.894,10.806
				s11.906-1.961,12.725-2.452c0.818-0.491,2.565-6.88,2.565-6.88s-0.555-6.549-2.355-8.35c-1.802-1.801,0.11-18.182,0.11-18.182
				L297.86,254.572z"/>
		</g>
		<g>
			<path style="fill:#D21F20;" d="M275.803,185.316c0,0,13.92,21.382,16.831,43.852c2.766,21.344,2.899,25.596,2.899,25.596h17.552
				c0,0,2.293-14.993-1.771-42.238c-3.773-25.303-9.877-50.961-19.376-55.807C272.212,146.655,275.803,185.316,275.803,185.316z"/>
		</g>
		<g>
			<path style="fill:#6B6966;" d="M278.27,282.6c-0.279-0.58-0.6-1.14-0.979-1.649c-1.14-1.55-2.73-2.76-4.57-3.45
				c-1.069-0.39-2.229-0.61-3.439-0.61c-0.601,0-1.191,0.051-1.761,0.16c-2.05,0.36-3.88,1.36-5.289,2.78
				c-1.78,1.8-2.881,4.26-2.881,6.99c0,1.34,0.271,2.62,0.75,3.779c0.03,0.091,0.07,0.181,0.12,0.27c0.11,0.27,0.24,0.53,0.391,0.78
				c0.18,0.34,0.39,0.67,0.62,0.98c1.8,2.5,4.739,4.12,8.05,4.12c1.569,0,3.05-0.36,4.359-1.01c1.65-0.811,3.04-2.05,4.011-3.59
				c0.83-1.29,1.359-2.78,1.51-4.381c0.03-0.31,0.05-0.63,0.05-0.949C279.21,285.31,278.87,283.88,278.27,282.6z M273.27,289.27
				c-0.81,1.341-2.3,2.24-3.989,2.24c-2.59,0-4.691-2.1-4.691-4.689c0-0.73,0.17-1.42,0.47-2.03c0.75-1.57,2.36-2.66,4.221-2.66
				c0.43,0,0.84,0.06,1.229,0.17c1.01,0.26,1.88,0.87,2.49,1.67c0.61,0.79,0.97,1.78,0.97,2.851
				C273.97,287.72,273.72,288.56,273.27,289.27z"/>
		</g>
		<g>
			<path style="fill:#6B6966;" d="M331.84,266.99c-4.82,0-8.859,3.45-9.75,8.01c-0.13,0.62-0.189,1.26-0.189,1.92
				c0,1.17,0.199,2.29,0.58,3.33c1.369,3.85,5.05,6.6,9.359,6.6c0.771,0,1.53-0.09,2.25-0.26l-2.859-5.02
				c-2.301-0.301-4.091-2.271-4.091-4.65c0-2.59,2.11-4.689,4.7-4.689c2.58,0,4.691,2.1,4.691,4.689c0,0.51-0.08,0.99-0.23,1.45
				l2.94,5.16c1.58-1.761,2.529-4.07,2.529-6.61C341.77,271.44,337.31,266.99,331.84,266.99z"/>
		</g>
		<g>
			
				<rect x="262.154" y="271.845" transform="matrix(0.869 -0.4948 0.4948 0.869 -103.2702 167.7249)" style="fill:#FFBD00;" width="5.976" height="14.122"/>
		</g>
		<g>
			<path style="fill:#B51B1C;" d="M295.533,257.272c0,0-2.564-11.635-1.76-11.798c0.806-0.163,21.66-3.67,22.097-1.102
				c0.436,2.568-0.655,13.698-2.947,14.065C310.631,258.806,295.533,257.272,295.533,257.272z"/>
		</g>
		<g>
			<g>
				<path style="fill:#723400;" d="M220.739,243.829c0,0,23.845,9.979,60.149,0c0,0,0.338,12.723-1.52,13.106
					c-1.858,0.385-24.39,8.827-58.629-1.135C220.739,255.8,218.843,242.044,220.739,243.829z"/>
			</g>
			<g>
				<g>
					<path style="fill:#ABA8A3;" d="M255,248.11c-0.6-0.37-1.32-0.58-2.08-0.58h-10.79c-0.6,0-1.18,0.13-1.69,0.37
						c-1.39,0.64-2.36,2.04-2.36,3.68v5.57c0,0.949,0.33,1.83,0.88,2.52c0.74,0.93,1.88,1.53,3.17,1.53h10.79
						c0.76,0,1.47-0.21,2.07-0.57c0.43-0.25,0.81-0.58,1.109-0.97c0.551-0.69,0.87-1.561,0.87-2.51v-5.57
						C256.97,250.1,256.18,248.81,255,248.11z M242.13,258.5c-0.65,0-1.18-0.44-1.31-1.05c-0.03-0.09-0.04-0.2-0.04-0.3v-5.57
						c0-0.75,0.6-1.35,1.35-1.35h10.79c0.75,0,1.35,0.6,1.35,1.35v5.57c0,0.75-0.6,1.35-1.35,1.35H242.13z"/>
				</g>
			</g>
			<g>
				<path style="fill:#ABA8A3;" d="M255.897,254.564c0,0.543-0.44,0.982-0.983,0.982h-2.788c-0.544,0-0.985-0.439-0.985-0.982l0,0
					c0-0.547,0.441-0.986,0.985-0.986h2.788C255.457,253.577,255.897,254.017,255.897,254.564L255.897,254.564z"/>
			</g>
		</g>
		<path style="fill:#BF1C1D;" d="M269.328,100.735c-8.403-3.196-35.895-12.434-38.635,2.497c0,0-0.053-0.021-0.159-0.064
			c-0.042-0.021-0.106-0.042-0.18-0.074c-0.021,0-0.032-0.011-0.042-0.021c-0.053-0.021-0.106-0.042-0.169-0.063
			c-0.032-0.011-0.063-0.032-0.106-0.043c-0.085-0.042-0.19-0.085-0.296-0.127c-0.032-0.01-0.074-0.021-0.106-0.042
			c-4.117-1.704-18.868-8.105-20.561-13.153v-0.011c-1.947-5.873,25.958-14.085,34.519-13.037
			C252.025,77.635,268.861,100.111,269.328,100.735z"/>
	</g>
</g>
<g id="Designed_by_Freepik">
	<g>
		<g>
			<path style="fill:#DCDCDC;" d="M178.112,478.91v-0.162c-0.219,0.25-0.436,0.456-0.648,0.61c-0.213,0.158-0.444,0.279-0.694,0.359
				c-0.249,0.084-0.521,0.124-0.815,0.124c-0.391,0-0.753-0.082-1.085-0.248c-0.333-0.166-0.621-0.401-0.864-0.709
				c-0.244-0.306-0.428-0.666-0.553-1.082c-0.125-0.414-0.188-0.863-0.188-1.345c0-1.022,0.249-1.815,0.747-2.386
				c0.498-0.569,1.154-0.855,1.967-0.855c0.47,0,0.867,0.082,1.19,0.242c0.323,0.162,0.638,0.41,0.944,0.744v-2.409
				c0-0.334,0.066-0.586,0.2-0.76c0.134-0.17,0.324-0.256,0.571-0.256c0.247,0,0.437,0.078,0.571,0.236
				c0.133,0.159,0.2,0.39,0.2,0.697v7.198c0,0.311-0.071,0.542-0.215,0.698c-0.144,0.155-0.329,0.233-0.556,0.233
				c-0.223,0-0.407-0.08-0.553-0.241C178.184,479.439,178.112,479.208,178.112,478.91z M174.902,476.512
				c0,0.443,0.069,0.819,0.206,1.131c0.138,0.31,0.326,0.544,0.565,0.702c0.239,0.156,0.5,0.236,0.783,0.236
				c0.287,0,0.549-0.074,0.787-0.225c0.237-0.149,0.426-0.378,0.567-0.688c0.142-0.31,0.212-0.695,0.212-1.157
				c0-0.435-0.07-0.81-0.212-1.122c-0.141-0.311-0.333-0.551-0.574-0.717c-0.242-0.164-0.505-0.248-0.792-0.248
				c-0.299,0-0.566,0.086-0.801,0.254c-0.235,0.17-0.417,0.413-0.547,0.729C174.966,475.726,174.902,476.094,174.902,476.512z"/>
			<path style="fill:#DCDCDC;" d="M185.309,476.924h-3.191c0.004,0.371,0.078,0.699,0.224,0.982c0.145,0.283,0.339,0.497,0.58,0.638
				c0.241,0.146,0.507,0.216,0.798,0.216c0.195,0,0.374-0.02,0.535-0.066c0.162-0.048,0.318-0.118,0.47-0.218
				c0.152-0.096,0.291-0.2,0.418-0.314c0.127-0.11,0.292-0.263,0.496-0.454c0.084-0.07,0.204-0.108,0.359-0.108
				c0.167,0,0.302,0.047,0.406,0.139s0.156,0.22,0.156,0.39c0,0.147-0.058,0.317-0.174,0.516c-0.116,0.198-0.29,0.388-0.523,0.567
				c-0.234,0.183-0.526,0.332-0.879,0.452c-0.352,0.12-0.758,0.18-1.216,0.18c-1.048,0-1.864-0.3-2.445-0.897
				c-0.582-0.598-0.873-1.409-0.873-2.433c0-0.483,0.071-0.93,0.215-1.342c0.144-0.413,0.353-0.766,0.627-1.061
				c0.275-0.294,0.614-0.521,1.017-0.678c0.403-0.159,0.849-0.237,1.339-0.237c0.637,0,1.185,0.134,1.64,0.403
				c0.458,0.268,0.8,0.618,1.026,1.042c0.227,0.428,0.341,0.863,0.341,1.305c0,0.412-0.118,0.678-0.353,0.8
				C186.067,476.863,185.736,476.924,185.309,476.924z M182.117,475.998h2.959c-0.039-0.558-0.191-0.975-0.451-1.252
				c-0.261-0.279-0.605-0.417-1.031-0.417c-0.407,0-0.741,0.142-1.001,0.421C182.331,475.032,182.173,475.446,182.117,475.998z"/>
			<path style="fill:#DCDCDC;" d="M192.746,477.707c0,0.45-0.108,0.836-0.329,1.157c-0.219,0.32-0.543,0.563-0.971,0.73
				c-0.429,0.166-0.95,0.248-1.564,0.248c-0.585,0-1.088-0.09-1.506-0.27c-0.418-0.18-0.728-0.402-0.927-0.672
				c-0.199-0.27-0.298-0.538-0.298-0.811c0-0.18,0.063-0.332,0.191-0.46c0.127-0.126,0.289-0.189,0.484-0.189
				c0.171,0,0.302,0.042,0.393,0.124c0.093,0.084,0.181,0.203,0.264,0.352c0.167,0.294,0.368,0.508,0.601,0.653
				c0.234,0.143,0.551,0.216,0.954,0.216c0.327,0,0.595-0.075,0.804-0.22c0.209-0.146,0.313-0.312,0.313-0.498
				c0-0.289-0.108-0.495-0.325-0.627c-0.218-0.132-0.576-0.26-1.074-0.378c-0.561-0.139-1.019-0.286-1.371-0.44
				c-0.354-0.151-0.635-0.355-0.847-0.605c-0.211-0.25-0.317-0.561-0.317-0.928c0-0.325,0.098-0.634,0.293-0.927
				c0.195-0.29,0.484-0.522,0.865-0.696c0.38-0.172,0.838-0.26,1.377-0.26c0.423,0,0.803,0.044,1.139,0.134
				c0.337,0.086,0.619,0.204,0.843,0.352c0.226,0.147,0.397,0.311,0.514,0.49c0.118,0.18,0.176,0.354,0.176,0.525
				c0,0.187-0.063,0.342-0.188,0.462c-0.125,0.116-0.304,0.18-0.536,0.18c-0.167,0-0.31-0.048-0.426-0.146
				c-0.118-0.096-0.252-0.238-0.404-0.43c-0.124-0.16-0.269-0.288-0.436-0.384c-0.167-0.096-0.394-0.144-0.682-0.144
				c-0.295,0-0.54,0.064-0.735,0.19c-0.196,0.126-0.293,0.28-0.293,0.468c0,0.172,0.071,0.313,0.214,0.422
				c0.145,0.11,0.337,0.202,0.581,0.273c0.243,0.07,0.577,0.158,1.004,0.261c0.505,0.125,0.919,0.272,1.24,0.443
				c0.32,0.17,0.564,0.374,0.73,0.607C192.664,477.142,192.746,477.409,192.746,477.707z"/>
			<path style="fill:#DCDCDC;" d="M194.414,472.447c-0.228,0-0.422-0.071-0.583-0.21c-0.162-0.14-0.242-0.336-0.242-0.592
				c0-0.231,0.083-0.421,0.247-0.571c0.166-0.148,0.358-0.226,0.578-0.226c0.211,0,0.398,0.069,0.562,0.205
				c0.163,0.135,0.245,0.332,0.245,0.592c0,0.252-0.081,0.446-0.24,0.588C194.822,472.374,194.633,472.447,194.414,472.447z
				 M195.221,474.131v4.718c0,0.326-0.078,0.575-0.233,0.741c-0.156,0.168-0.352,0.252-0.592,0.252
				c-0.239,0-0.434-0.086-0.583-0.258c-0.15-0.17-0.224-0.416-0.224-0.735v-4.668c0-0.322,0.074-0.567,0.224-0.729
				c0.149-0.164,0.344-0.246,0.583-0.246c0.24,0,0.436,0.082,0.592,0.246C195.143,473.613,195.221,473.843,195.221,474.131z"/>
			<path style="fill:#DCDCDC;" d="M202.371,474.4v4.74c0,0.543-0.058,1.011-0.174,1.401c-0.115,0.39-0.301,0.713-0.556,0.969
				c-0.255,0.254-0.589,0.444-1.002,0.566c-0.412,0.124-0.926,0.186-1.539,0.186c-0.562,0-1.064-0.078-1.508-0.235
				c-0.441-0.158-0.782-0.362-1.021-0.61c-0.239-0.248-0.359-0.504-0.359-0.768c0-0.199,0.067-0.363,0.204-0.487
				c0.135-0.126,0.299-0.189,0.49-0.189c0.239,0,0.449,0.104,0.628,0.316c0.087,0.107,0.178,0.216,0.271,0.325
				c0.094,0.11,0.198,0.204,0.311,0.282c0.113,0.078,0.249,0.136,0.409,0.174c0.159,0.036,0.343,0.056,0.55,0.056
				c0.423,0,0.75-0.06,0.983-0.176c0.233-0.118,0.397-0.283,0.49-0.495c0.094-0.21,0.148-0.435,0.165-0.678
				c0.016-0.24,0.027-0.628,0.036-1.162c-0.251,0.351-0.541,0.618-0.871,0.802c-0.329,0.183-0.72,0.274-1.174,0.274
				c-0.545,0-1.023-0.139-1.432-0.42c-0.408-0.278-0.723-0.668-0.941-1.17c-0.22-0.504-0.329-1.083-0.329-1.739
				c0-0.491,0.066-0.934,0.201-1.327c0.134-0.397,0.324-0.728,0.57-1.001c0.247-0.269,0.532-0.473,0.855-0.61
				c0.323-0.14,0.677-0.208,1.064-0.208c0.462,0,0.863,0.09,1.202,0.265c0.338,0.18,0.653,0.457,0.945,0.837v-0.222
				c0-0.282,0.069-0.502,0.208-0.659c0.14-0.154,0.32-0.232,0.539-0.232c0.314,0,0.523,0.102,0.627,0.309
				C202.319,473.719,202.371,474.015,202.371,474.4z M197.642,476.47c0,0.663,0.145,1.163,0.434,1.501
				c0.289,0.34,0.663,0.508,1.121,0.508c0.271,0,0.526-0.072,0.767-0.218c0.243-0.146,0.438-0.364,0.59-0.658
				c0.151-0.293,0.228-0.647,0.228-1.067c0-0.665-0.147-1.185-0.44-1.555c-0.293-0.368-0.679-0.556-1.157-0.556
				c-0.467,0-0.84,0.178-1.122,0.533C197.782,475.313,197.642,475.817,197.642,476.47z"/>
			<path style="fill:#DCDCDC;" d="M204.965,474.108v0.196c0.286-0.378,0.6-0.657,0.941-0.832c0.34-0.178,0.731-0.268,1.174-0.268
				c0.431,0,0.815,0.096,1.154,0.28c0.338,0.189,0.593,0.453,0.758,0.795c0.108,0.2,0.179,0.416,0.21,0.646
				c0.032,0.231,0.048,0.527,0.048,0.887v3.035c0,0.326-0.075,0.575-0.225,0.741c-0.149,0.168-0.343,0.252-0.583,0.252
				c-0.244,0-0.44-0.086-0.591-0.258c-0.152-0.17-0.227-0.416-0.227-0.735v-2.721c0-0.536-0.075-0.949-0.225-1.233
				c-0.149-0.284-0.447-0.428-0.895-0.428c-0.29,0-0.556,0.086-0.794,0.26c-0.24,0.174-0.415,0.412-0.526,0.714
				c-0.08,0.245-0.12,0.697-0.12,1.363v2.045c0,0.33-0.076,0.579-0.229,0.745c-0.153,0.166-0.352,0.248-0.594,0.248
				c-0.236,0-0.429-0.086-0.581-0.258c-0.151-0.17-0.227-0.416-0.227-0.735v-4.718c0-0.31,0.068-0.542,0.203-0.696
				c0.136-0.151,0.321-0.229,0.556-0.229c0.144,0,0.274,0.034,0.39,0.102c0.115,0.068,0.208,0.17,0.278,0.305
				C204.93,473.747,204.965,473.913,204.965,474.108z"/>
			<path style="fill:#DCDCDC;" d="M214.894,476.924h-3.192c0.004,0.371,0.078,0.699,0.224,0.982c0.145,0.283,0.338,0.497,0.58,0.638
				c0.241,0.146,0.507,0.216,0.798,0.216c0.195,0,0.374-0.02,0.536-0.066c0.161-0.048,0.317-0.118,0.469-0.218
				c0.151-0.096,0.29-0.2,0.419-0.314c0.127-0.11,0.293-0.263,0.495-0.454c0.083-0.07,0.204-0.108,0.359-0.108
				c0.167,0,0.303,0.047,0.407,0.139c0.103,0.092,0.155,0.22,0.155,0.39c0,0.147-0.058,0.317-0.173,0.516
				c-0.116,0.198-0.29,0.388-0.523,0.567c-0.233,0.183-0.525,0.332-0.878,0.452c-0.353,0.12-0.758,0.18-1.217,0.18
				c-1.048,0-1.863-0.3-2.445-0.897c-0.581-0.598-0.873-1.409-0.873-2.433c0-0.483,0.072-0.93,0.215-1.342
				c0.144-0.413,0.353-0.766,0.629-1.061c0.275-0.294,0.614-0.521,1.016-0.678c0.403-0.159,0.849-0.237,1.339-0.237
				c0.638,0,1.184,0.134,1.64,0.403c0.457,0.268,0.799,0.618,1.026,1.042c0.227,0.428,0.34,0.863,0.34,1.305
				c0,0.412-0.117,0.678-0.353,0.8C215.652,476.863,215.321,476.924,214.894,476.924z M211.702,475.998h2.959
				c-0.039-0.558-0.19-0.975-0.451-1.252c-0.261-0.279-0.605-0.417-1.032-0.417c-0.407,0-0.741,0.142-1.002,0.421
				C211.916,475.032,211.758,475.446,211.702,475.998z"/>
			<path style="fill:#DCDCDC;" d="M221.547,478.91v-0.162c-0.219,0.25-0.436,0.456-0.648,0.61c-0.214,0.158-0.444,0.279-0.693,0.359
				c-0.249,0.084-0.521,0.124-0.816,0.124c-0.391,0-0.752-0.082-1.085-0.248c-0.333-0.166-0.621-0.401-0.863-0.709
				c-0.244-0.306-0.428-0.666-0.553-1.082c-0.126-0.414-0.188-0.863-0.188-1.345c0-1.022,0.248-1.815,0.747-2.386
				c0.499-0.569,1.154-0.855,1.967-0.855c0.471,0,0.868,0.082,1.189,0.242c0.324,0.162,0.638,0.41,0.945,0.744v-2.409
				c0-0.334,0.067-0.586,0.201-0.76c0.133-0.17,0.324-0.256,0.571-0.256c0.248,0,0.438,0.078,0.571,0.236
				c0.134,0.159,0.2,0.39,0.2,0.697v7.198c0,0.311-0.071,0.542-0.215,0.698c-0.143,0.155-0.328,0.233-0.556,0.233
				c-0.223,0-0.407-0.08-0.553-0.241C221.62,479.439,221.547,479.208,221.547,478.91z M218.337,476.512
				c0,0.443,0.069,0.819,0.207,1.131c0.137,0.31,0.326,0.544,0.565,0.702c0.239,0.156,0.499,0.236,0.782,0.236
				c0.288,0,0.549-0.074,0.787-0.225c0.237-0.149,0.426-0.378,0.568-0.688c0.141-0.31,0.212-0.695,0.212-1.157
				c0-0.435-0.071-0.81-0.212-1.122c-0.142-0.311-0.333-0.551-0.574-0.717c-0.242-0.164-0.505-0.248-0.792-0.248
				c-0.298,0-0.566,0.086-0.801,0.254c-0.235,0.17-0.418,0.413-0.547,0.729C218.402,475.726,218.337,476.094,218.337,476.512z"/>
			<path style="fill:#DCDCDC;" d="M228.218,471.712v2.491c0.307-0.318,0.62-0.563,0.939-0.73c0.318-0.17,0.713-0.256,1.184-0.256
				c0.543,0,1.017,0.13,1.426,0.386c0.408,0.258,0.725,0.63,0.95,1.118c0.225,0.489,0.338,1.067,0.338,1.737
				c0,0.495-0.063,0.947-0.188,1.359c-0.126,0.413-0.308,0.771-0.547,1.073c-0.24,0.302-0.53,0.537-0.87,0.703
				c-0.341,0.166-0.717,0.248-1.127,0.248c-0.251,0-0.487-0.03-0.709-0.09c-0.221-0.06-0.409-0.138-0.564-0.237
				c-0.155-0.097-0.288-0.196-0.398-0.301c-0.109-0.103-0.254-0.258-0.433-0.466v0.162c0,0.306-0.074,0.538-0.221,0.696
				c-0.147,0.157-0.335,0.235-0.562,0.235c-0.231,0-0.416-0.078-0.553-0.235c-0.138-0.158-0.207-0.391-0.207-0.696v-7.128
				c0-0.33,0.066-0.582,0.2-0.75c0.133-0.17,0.32-0.254,0.559-0.254c0.251,0,0.444,0.08,0.579,0.242
				C228.15,471.183,228.218,471.41,228.218,471.712z M228.296,476.56c0,0.649,0.148,1.149,0.445,1.497
				c0.297,0.35,0.687,0.524,1.169,0.524c0.41,0,0.764-0.179,1.061-0.536c0.296-0.357,0.445-0.868,0.445-1.533
				c0-0.43-0.061-0.802-0.185-1.113c-0.124-0.311-0.299-0.55-0.525-0.72c-0.227-0.168-0.493-0.254-0.796-0.254
				c-0.311,0-0.589,0.086-0.831,0.254c-0.243,0.17-0.435,0.414-0.574,0.735C228.366,475.734,228.296,476.116,228.296,476.56z"/>
			<path style="fill:#DCDCDC;" d="M235.171,480.046l0.149-0.366l-2.009-5.058c-0.123-0.291-0.185-0.503-0.185-0.635
				c0-0.139,0.036-0.267,0.108-0.387c0.073-0.121,0.171-0.216,0.296-0.287c0.125-0.072,0.255-0.108,0.392-0.108
				c0.235,0,0.412,0.074,0.532,0.226c0.12,0.148,0.225,0.362,0.316,0.642l1.381,4.017l1.309-3.736
				c0.104-0.302,0.198-0.538,0.281-0.71c0.084-0.172,0.172-0.287,0.265-0.346c0.094-0.061,0.227-0.092,0.399-0.092
				c0.124,0,0.242,0.032,0.355,0.1c0.114,0.064,0.202,0.154,0.263,0.265c0.061,0.113,0.093,0.229,0.093,0.354
				c-0.017,0.074-0.042,0.184-0.079,0.322c-0.036,0.14-0.079,0.283-0.131,0.426l-2.129,5.571c-0.183,0.491-0.363,0.875-0.538,1.153
				c-0.175,0.279-0.407,0.495-0.696,0.644c-0.289,0.149-0.679,0.224-1.169,0.224c-0.478,0-0.837-0.052-1.076-0.154
				c-0.24-0.105-0.359-0.295-0.359-0.569c0-0.188,0.056-0.332,0.171-0.434c0.113-0.102,0.281-0.152,0.504-0.152
				c0.088,0,0.175,0.011,0.258,0.036c0.103,0.022,0.193,0.036,0.268,0.036c0.188,0,0.335-0.026,0.443-0.084
				c0.108-0.056,0.204-0.152,0.29-0.29C234.961,480.516,235.06,480.311,235.171,480.046z"/>
		</g>
		<g>
			<path style="fill:#DCDCDC;" d="M258.814,473.347h0.391v-0.489c0-0.514,0.063-0.918,0.193-1.22
				c0.127-0.302,0.348-0.52,0.658-0.659c0.309-0.136,0.733-0.204,1.27-0.204c0.957,0,1.432,0.231,1.432,0.701
				c0,0.15-0.051,0.28-0.152,0.387c-0.098,0.107-0.217,0.161-0.352,0.161c-0.063,0-0.174-0.012-0.332-0.036
				c-0.148-0.022-0.283-0.037-0.393-0.037c-0.293,0-0.48,0.09-0.568,0.262c-0.08,0.174-0.123,0.422-0.123,0.747v0.388h0.398
				c0.623,0,0.932,0.186,0.932,0.564c0,0.262-0.08,0.434-0.248,0.506c-0.164,0.071-0.393,0.107-0.684,0.107h-0.398v4.324
				c0,0.323-0.076,0.567-0.232,0.735c-0.152,0.172-0.35,0.256-0.594,0.256c-0.23,0-0.422-0.084-0.578-0.256
				c-0.154-0.168-0.228-0.412-0.228-0.735v-4.324h-0.449c-0.246,0-0.43-0.054-0.563-0.164c-0.133-0.108-0.197-0.252-0.197-0.428
				C257.996,473.541,258.268,473.347,258.814,473.347"/>
			<path style="fill:#DCDCDC;" d="M264.16,477.483v1.365c0,0.33-0.084,0.579-0.236,0.743c-0.154,0.168-0.352,0.248-0.59,0.248
				c-0.24,0-0.434-0.082-0.584-0.252c-0.148-0.166-0.227-0.413-0.227-0.739v-4.546c0-0.733,0.264-1.1,0.793-1.1
				c0.273,0,0.467,0.084,0.59,0.256c0.117,0.172,0.184,0.424,0.197,0.76c0.195-0.336,0.395-0.588,0.598-0.76
				c0.209-0.172,0.48-0.256,0.824-0.256c0.346,0,0.676,0.084,0.998,0.256c0.324,0.172,0.486,0.401,0.486,0.684
				c0,0.196-0.07,0.364-0.207,0.49c-0.137,0.132-0.285,0.197-0.443,0.197c-0.065,0-0.209-0.038-0.436-0.113
				c-0.23-0.07-0.434-0.108-0.607-0.108c-0.238,0-0.436,0.065-0.586,0.188c-0.152,0.129-0.271,0.313-0.353,0.559
				c-0.082,0.248-0.139,0.545-0.174,0.885C264.172,476.579,264.16,476.995,264.16,477.483"/>
			<path style="fill:#DCDCDC;" d="M271.662,476.923h-3.193c0.006,0.37,0.078,0.7,0.223,0.98c0.148,0.281,0.34,0.497,0.582,0.64
				c0.242,0.143,0.506,0.216,0.801,0.216c0.193,0,0.371-0.02,0.533-0.07c0.16-0.044,0.316-0.116,0.469-0.216
				c0.152-0.096,0.289-0.2,0.418-0.315c0.127-0.108,0.293-0.261,0.498-0.452c0.084-0.07,0.205-0.108,0.357-0.108
				c0.168,0,0.303,0.047,0.408,0.139c0.105,0.094,0.154,0.222,0.154,0.39c0,0.147-0.057,0.319-0.168,0.516
				c-0.119,0.2-0.291,0.388-0.527,0.569c-0.236,0.181-0.527,0.332-0.881,0.45c-0.352,0.12-0.758,0.18-1.215,0.18
				c-1.051,0-1.865-0.298-2.447-0.896c-0.58-0.598-0.875-1.411-0.875-2.435c0-0.482,0.074-0.93,0.219-1.342
				c0.141-0.415,0.35-0.768,0.629-1.064c0.273-0.296,0.609-0.521,1.016-0.678c0.4-0.159,0.848-0.237,1.338-0.237
				c0.637,0,1.184,0.136,1.643,0.407c0.453,0.265,0.801,0.614,1.025,1.042c0.227,0.428,0.34,0.861,0.34,1.306
				c0,0.407-0.119,0.673-0.353,0.797C272.42,476.863,272.09,476.923,271.662,476.923 M268.469,475.994h2.959
				c-0.039-0.558-0.188-0.976-0.449-1.25c-0.264-0.277-0.603-0.415-1.033-0.415c-0.406,0-0.74,0.138-1.002,0.421
				C268.684,475.03,268.523,475.444,268.469,475.994"/>
			<path style="fill:#DCDCDC;" d="M278.451,476.923h-3.191c0.004,0.37,0.078,0.7,0.223,0.98c0.147,0.281,0.34,0.497,0.58,0.64
				c0.24,0.143,0.508,0.216,0.801,0.216c0.193,0,0.373-0.02,0.531-0.07c0.162-0.044,0.318-0.116,0.471-0.216
				c0.154-0.096,0.291-0.2,0.418-0.315c0.125-0.108,0.295-0.261,0.498-0.452c0.084-0.07,0.205-0.108,0.357-0.108
				c0.168,0,0.303,0.047,0.41,0.139c0.102,0.094,0.15,0.222,0.15,0.39c0,0.147-0.057,0.319-0.172,0.516
				c-0.111,0.2-0.287,0.388-0.523,0.569c-0.232,0.181-0.527,0.332-0.879,0.45c-0.35,0.12-0.76,0.18-1.217,0.18
				c-1.051,0-1.861-0.298-2.447-0.896c-0.58-0.598-0.873-1.411-0.873-2.435c0-0.482,0.072-0.93,0.219-1.342
				c0.143-0.415,0.352-0.768,0.627-1.064c0.275-0.296,0.613-0.521,1.016-0.678c0.402-0.159,0.852-0.237,1.34-0.237
				c0.637,0,1.184,0.136,1.645,0.407c0.453,0.265,0.797,0.614,1.021,1.042c0.227,0.428,0.342,0.861,0.342,1.306
				c0,0.407-0.119,0.673-0.352,0.797C279.209,476.863,278.877,476.923,278.451,476.923 M275.26,475.994h2.959
				c-0.041-0.558-0.191-0.976-0.449-1.25c-0.266-0.277-0.605-0.415-1.035-0.415c-0.406,0-0.74,0.138-1.004,0.421
				C275.473,475.03,275.313,475.444,275.26,475.994"/>
			<path style="fill:#DCDCDC;" d="M282.027,474.121v0.195c0.307-0.378,0.627-0.657,0.961-0.835c0.326-0.179,0.703-0.269,1.121-0.269
				c0.5,0,0.967,0.132,1.389,0.39c0.424,0.259,0.756,0.64,1,1.138c0.246,0.5,0.371,1.088,0.371,1.77
				c0,0.502-0.072,0.964-0.213,1.387c-0.141,0.42-0.338,0.772-0.586,1.058c-0.246,0.282-0.537,0.504-0.873,0.656
				c-0.342,0.153-0.699,0.229-1.088,0.229c-0.465,0-0.857-0.094-1.174-0.281c-0.316-0.183-0.619-0.462-0.908-0.82v2.449
				c0,0.714-0.262,1.075-0.783,1.075c-0.309,0-0.508-0.092-0.611-0.277c-0.096-0.187-0.146-0.454-0.146-0.812v-7.045
				c0-0.311,0.066-0.542,0.201-0.698c0.135-0.149,0.322-0.228,0.557-0.228c0.233,0,0.42,0.078,0.565,0.234
				C281.957,473.597,282.027,473.821,282.027,474.121 M285.228,476.493c0-0.432-0.066-0.803-0.199-1.111
				c-0.131-0.31-0.313-0.546-0.543-0.709c-0.232-0.166-0.494-0.25-0.777-0.25c-0.449,0-0.83,0.178-1.137,0.531
				c-0.311,0.356-0.467,0.878-0.467,1.569c0,0.647,0.154,1.155,0.463,1.514c0.307,0.363,0.684,0.542,1.141,0.542
				c0.269,0,0.523-0.08,0.754-0.234c0.234-0.16,0.418-0.396,0.557-0.71C285.158,477.319,285.228,476.938,285.228,476.493"/>
			<path style="fill:#DCDCDC;" d="M288.512,472.443c-0.228,0-0.422-0.072-0.582-0.212c-0.164-0.14-0.244-0.334-0.244-0.588
				c0-0.233,0.084-0.422,0.25-0.575c0.166-0.146,0.358-0.224,0.576-0.224c0.215,0,0.398,0.067,0.563,0.201
				c0.162,0.137,0.246,0.338,0.246,0.598c0,0.25-0.08,0.446-0.238,0.588C288.922,472.371,288.732,472.443,288.512,472.443
				 M289.32,474.129v4.722c0,0.324-0.078,0.571-0.234,0.737c-0.156,0.17-0.352,0.252-0.592,0.252c-0.24,0-0.432-0.084-0.584-0.256
				c-0.148-0.174-0.225-0.418-0.225-0.733v-4.676c0-0.32,0.076-0.564,0.225-0.728c0.152-0.164,0.344-0.244,0.584-0.244
				c0.24,0,0.436,0.08,0.592,0.244C289.242,473.611,289.32,473.841,289.32,474.129"/>
			<path style="fill:#DCDCDC;" d="M294.582,479.095l-1.438-2.371l-0.887,0.836v1.303c0,0.313-0.084,0.554-0.25,0.722
				c-0.162,0.172-0.355,0.256-0.57,0.256c-0.25,0-0.449-0.082-0.592-0.252c-0.145-0.166-0.217-0.413-0.217-0.739v-6.963
				c0-0.361,0.072-0.638,0.209-0.827c0.141-0.192,0.342-0.284,0.6-0.284c0.25,0,0.449,0.086,0.598,0.258
				c0.148,0.172,0.223,0.424,0.223,0.758v3.962l1.836-1.929c0.227-0.236,0.398-0.402,0.52-0.49c0.119-0.088,0.264-0.13,0.434-0.13
				c0.205,0,0.373,0.065,0.514,0.192c0.133,0.13,0.201,0.295,0.201,0.487c0,0.238-0.221,0.56-0.662,0.958l-0.867,0.795l1.674,2.633
				c0.121,0.196,0.213,0.342,0.266,0.444c0.053,0.102,0.082,0.201,0.082,0.291c0,0.259-0.072,0.462-0.215,0.614
				c-0.141,0.149-0.328,0.222-0.557,0.222c-0.199,0-0.355-0.05-0.463-0.16C294.912,479.57,294.764,479.376,294.582,479.095"/>
			<path style="fill:#DCDCDC;" d="M298.129,479.84c-0.248,0-0.459-0.078-0.637-0.239c-0.18-0.156-0.271-0.382-0.271-0.67
				c0-0.242,0.088-0.452,0.258-0.626c0.174-0.176,0.383-0.266,0.635-0.266c0.25,0,0.463,0.09,0.645,0.26
				c0.176,0.174,0.266,0.388,0.266,0.632c0,0.285-0.09,0.508-0.266,0.667C298.576,479.762,298.367,479.84,298.129,479.84"/>
			<path style="fill:#DCDCDC;" d="M306.248,477.819c0,0.203-0.06,0.42-0.184,0.651c-0.119,0.233-0.307,0.452-0.557,0.661
				c-0.25,0.21-0.563,0.38-0.941,0.506c-0.379,0.128-0.807,0.192-1.279,0.192c-1.01,0-1.797-0.296-2.365-0.882
				c-0.563-0.588-0.846-1.377-0.846-2.366c0-0.672,0.129-1.262,0.389-1.777c0.258-0.514,0.633-0.91,1.121-1.193
				c0.492-0.28,1.082-0.422,1.76-0.422c0.424,0,0.811,0.061,1.166,0.185c0.352,0.124,0.65,0.284,0.897,0.479
				c0.244,0.198,0.432,0.404,0.559,0.624c0.131,0.222,0.195,0.428,0.195,0.62c0,0.195-0.072,0.361-0.217,0.497
				c-0.146,0.136-0.324,0.204-0.527,0.204c-0.137,0-0.25-0.036-0.34-0.105c-0.092-0.07-0.191-0.181-0.301-0.34
				c-0.201-0.302-0.408-0.53-0.627-0.682c-0.217-0.15-0.492-0.227-0.828-0.227c-0.479,0-0.871,0.187-1.166,0.564
				c-0.295,0.375-0.443,0.894-0.443,1.545c0,0.308,0.039,0.592,0.115,0.85c0.074,0.256,0.184,0.476,0.328,0.655
				c0.145,0.181,0.316,0.318,0.52,0.412c0.203,0.098,0.43,0.144,0.67,0.144c0.328,0,0.609-0.077,0.84-0.228
				c0.238-0.15,0.443-0.384,0.623-0.693c0.098-0.183,0.205-0.326,0.32-0.432c0.113-0.103,0.256-0.156,0.424-0.156
				c0.199,0,0.365,0.076,0.494,0.23C306.18,477.487,306.248,477.649,306.248,477.819"/>
			<path style="fill:#DCDCDC;" d="M313.291,476.523c0,0.484-0.076,0.934-0.223,1.346c-0.156,0.411-0.373,0.764-0.66,1.056
				c-0.287,0.296-0.631,0.521-1.029,0.68c-0.402,0.157-0.848,0.237-1.346,0.237c-0.494,0-0.939-0.08-1.334-0.241
				c-0.393-0.156-0.738-0.387-1.023-0.682c-0.291-0.299-0.51-0.65-0.662-1.056c-0.145-0.404-0.221-0.852-0.221-1.34
				c0-0.496,0.078-0.949,0.225-1.359c0.152-0.411,0.371-0.764,0.654-1.052c0.285-0.291,0.625-0.516,1.027-0.675
				c0.406-0.156,0.85-0.234,1.334-0.234c0.494,0,0.943,0.078,1.346,0.238c0.404,0.159,0.746,0.388,1.037,0.68
				c0.287,0.3,0.504,0.649,0.652,1.055C313.217,475.584,313.291,476.03,313.291,476.523 M311.652,476.523
				c0-0.666-0.146-1.184-0.438-1.555c-0.293-0.374-0.688-0.559-1.182-0.559c-0.318,0-0.6,0.084-0.844,0.248
				c-0.244,0.164-0.43,0.408-0.561,0.733c-0.131,0.322-0.199,0.7-0.199,1.132c0,0.426,0.064,0.798,0.195,1.117
				c0.131,0.32,0.314,0.563,0.559,0.732c0.242,0.168,0.523,0.254,0.85,0.254c0.494,0,0.889-0.187,1.182-0.561
				C311.506,477.695,311.652,477.178,311.652,476.523"/>
			<path style="fill:#DCDCDC;" d="M319.52,476.642v2.171c0,0.344-0.078,0.598-0.232,0.772c-0.158,0.172-0.361,0.258-0.617,0.258
				c-0.248,0-0.449-0.086-0.598-0.258c-0.156-0.174-0.234-0.428-0.234-0.772v-2.601c0-0.412-0.014-0.731-0.041-0.96
				c-0.027-0.222-0.105-0.413-0.227-0.556c-0.125-0.147-0.32-0.222-0.588-0.222c-0.533,0-0.885,0.184-1.053,0.556
				c-0.17,0.361-0.256,0.89-0.256,1.577v2.205c0,0.338-0.078,0.596-0.229,0.77c-0.156,0.172-0.357,0.26-0.607,0.26
				c-0.248,0-0.451-0.088-0.607-0.26c-0.158-0.174-0.238-0.432-0.238-0.77v-4.67c0-0.308,0.07-0.542,0.213-0.701
				c0.143-0.16,0.33-0.238,0.559-0.238c0.225,0,0.41,0.076,0.56,0.224c0.15,0.148,0.223,0.356,0.223,0.618v0.155
				c0.285-0.339,0.59-0.587,0.91-0.743c0.324-0.164,0.682-0.244,1.078-0.244c0.41,0,0.762,0.084,1.057,0.246
				c0.295,0.164,0.537,0.412,0.73,0.741c0.277-0.333,0.572-0.581,0.887-0.743c0.314-0.162,0.664-0.244,1.047-0.244
				c0.443,0,0.83,0.09,1.154,0.265c0.32,0.174,0.563,0.428,0.723,0.753c0.137,0.298,0.207,0.762,0.207,1.396v3.186
				c0,0.344-0.076,0.598-0.232,0.772c-0.154,0.172-0.359,0.258-0.615,0.258c-0.248,0-0.449-0.088-0.607-0.26
				c-0.156-0.174-0.236-0.432-0.236-0.77v-2.745c0-0.352-0.016-0.633-0.043-0.843c-0.031-0.212-0.113-0.391-0.242-0.534
				c-0.133-0.142-0.334-0.216-0.6-0.216c-0.215,0-0.42,0.068-0.613,0.194c-0.193,0.125-0.344,0.3-0.453,0.512
				C319.58,475.456,319.52,475.944,319.52,476.642"/>
		</g>
		<g>
			<path style="fill:#DCDCDC;" d="M243.539,476.128c-0.001-0.004-0.001-0.008-0.001-0.012
				C243.538,476.12,243.538,476.124,243.539,476.128z"/>
			<path style="fill:#DCDCDC;" d="M243.622,476.649c0.001,0,0.001,0,0.003,0c-0.032-0.149-0.057-0.296-0.075-0.443
				C243.568,476.355,243.593,476.502,243.622,476.649z"/>
			<path style="fill:#DCDCDC;" d="M244.163,478.165c-0.004-0.008-0.008-0.015-0.011-0.021
				C244.155,478.15,244.159,478.157,244.163,478.165z"/>
			<path style="fill:#DCDCDC;" d="M244.111,478.065c-0.015-0.029-0.028-0.058-0.042-0.086
				C244.083,478.009,244.097,478.035,244.111,478.065z"/>
			<path style="fill:#DCDCDC;" d="M243.774,477.231c0.079,0.252,0.176,0.498,0.288,0.729
				C243.947,477.725,243.854,477.479,243.774,477.231L243.774,477.231z"/>
			<path style="fill:#DCDCDC;" d="M249.858,469.873c0.316,0,0.548,0.025,0.815,0.071l0.075-0.481c0,0-0.737-0.227-1.706-0.147
				l-0.076-0.261c0.302-0.063,0.528-0.333,0.528-0.651c0-0.367-0.299-0.663-0.666-0.663c-0.367,0-0.665,0.296-0.665,0.663
				c0,0.318,0.225,0.588,0.526,0.651l0.084,0.292c-1.028,0.141-1.848,0.542-1.848,0.542l0.145,0.442
				c0.623-0.206,1.162-0.332,1.652-0.385C249.202,469.897,249.564,469.873,249.858,469.873z"/>
			<path style="fill:#DCDCDC;" d="M244.15,472.302l0.004-0.006c0.023-0.03,0.047-0.059,0.071-0.09l-0.198-0.141l-0.306-0.226
				c-0.018,0.024-0.501,0.47-0.883,1.291c-0.017-0.027-0.034-0.052-0.057-0.077c-0.114-0.124-0.274-0.189-0.477-0.185
				c-0.003,0-0.006,0-0.01,0c-0.125,0-0.212-0.042-0.269-0.092c0.057-0.07,0.09-0.16,0.09-0.262c0-0.23-0.188-0.42-0.422-0.42
				c-0.231,0-0.42,0.189-0.42,0.42c0,0.235,0.189,0.422,0.42,0.422c0.037,0,0.071-0.006,0.106-0.013
				c0.103,0.116,0.268,0.215,0.508,0.21c0.123,0,0.214,0.03,0.274,0.099c0.07,0.076,0.094,0.186,0.102,0.27c0,0,0,0.002-0.002,0.002
				c-0.274,0.748-0.196,1.68-0.196,1.68l0.666,0.027c0.015-0.338,0.062-0.932,0.233-1.403
				C243.718,472.896,244.133,472.327,244.15,472.302z"/>
			<path style="fill:#DCDCDC;" d="M255.648,470.429c-0.232,0-0.42,0.189-0.42,0.422c0,0.036,0.004,0.071,0.014,0.104
				c-0.115,0.104-0.217,0.27-0.213,0.51c0.002,0.124-0.029,0.214-0.096,0.274c-0.053,0.048-0.121,0.073-0.188,0.09
				c-0.494-0.694-1.104-1.118-1.104-1.118l-0.479,0.512c0.361,0.328,0.73,0.74,1.088,1.252c0.248,0.357,0.502,0.814,0.715,1.27
				l0.645-0.306c0,0-0.293-0.728-0.709-1.38c0.072-0.025,0.145-0.065,0.209-0.122c0.125-0.113,0.188-0.273,0.184-0.475
				c0-0.132,0.043-0.22,0.094-0.279c0.072,0.056,0.162,0.09,0.26,0.09c0.232,0,0.422-0.186,0.422-0.42
				C256.07,470.618,255.881,470.429,255.648,470.429z"/>
			<path style="fill:#DCDCDC;" d="M253.977,476.222c-0.889,0.432-2.348,1.004-4.269,1.271c-0.755,0.105-1.484,0.143-2.158,0.143
				c-0.875,0-1.65-0.065-2.242-0.142c-0.677-0.084-1.208-0.189-1.532-0.264c0.078,0.248,0.172,0.493,0.287,0.729
				c0.001,0.006,0.004,0.014,0.007,0.018c0.014,0.028,0.027,0.057,0.042,0.086c0.014,0.026,0.027,0.053,0.041,0.08
				c0.003,0.006,0.007,0.013,0.011,0.021c0.19,0.359,0.419,0.688,0.68,0.974c0.906,0.991,1.83,1.149,1.838,1.149l0.016,0.002
				l0.013,0.004c0.009,0.004,0.828,0.27,2.072,0.27c1.225,0,2.426-0.248,3.57-0.735c0.848-0.435,1.65-1.094,2.049-1.68
				c0.307-0.457,0.529-0.939,0.662-1.443c0.07-0.27,0.125-0.699,0.092-1.151C254.904,475.724,254.51,475.962,253.977,476.222z"/>
			<path style="fill:#DCDCDC;" d="M244.435,472.512c-0.026,0.038-0.411,0.583-0.714,1.419c-0.229,0.626-0.218,1.537-0.218,1.548
				v0.002c0,0.214,0.012,0.426,0.035,0.636c0,0.004,0,0.008,0.001,0.012c0.003,0.027,0.008,0.052,0.011,0.078
				c0.019,0.147,0.043,0.294,0.075,0.443c0.439,0.112,3.069,0.726,6.009,0.316c1.843-0.258,3.241-0.802,4.091-1.214
				c0.707-0.342,1.16-0.651,1.336-0.779c-0.176-0.646-0.656-1.663-1.098-2.295c-1.264-1.804-2.623-2.266-3.321-2.383
				c-0.267-0.042-0.48-0.068-0.783-0.068c-0.281,0-0.631,0.024-1.097,0.072c-0.468,0.05-0.989,0.172-1.595,0.376
				c-0.849,0.285-1.615,0.729-2.22,1.289l-0.021,0.02C244.836,472.065,244.65,472.239,244.435,472.512z M252.158,472.092
				c0.605,0,1.098,0.493,1.098,1.098c0,0.605-0.492,1.098-1.098,1.098s-1.096-0.492-1.096-1.098
				C251.063,472.585,251.553,472.092,252.158,472.092z M246.972,472.048c0.979,0,1.772,0.794,1.772,1.773
				c0,0.98-0.794,1.773-1.772,1.773c-0.98,0-1.773-0.793-1.773-1.773C245.198,472.842,245.992,472.048,246.972,472.048z"/>
		</g>
	</g>
</g>
</svg>
